<svg width="154" height="40" viewBox="0 0 154 40" fill="none" xmlns="http://www.w3.org/2000/svg">
<path d="M0.86174 29.7045V0.519257H6.20617V29.7045H0.86174Z" fill="#00A3FF"/>
<path d="M18.6051 30.2622C17.1799 30.2622 15.8167 29.9833 14.5155 29.4257C13.2142 28.868 12.0679 28.0934 11.0764 27.102C10.085 26.1106 9.31044 24.9642 8.75276 23.663C8.22606 22.3307 7.96271 20.952 7.96271 19.5268C7.96271 18.8452 8.05566 18.0552 8.24155 17.1567C8.42744 16.2582 8.76825 15.3442 9.26396 14.4148C9.75968 13.4853 10.4258 12.6023 11.2623 11.7658C12.1298 10.8983 13.2142 10.1857 14.5155 9.62803C15.8477 9.07035 17.2264 8.79151 18.6516 8.79151C20.4485 8.79151 22.199 9.27173 23.9031 10.2322C25.6381 11.1616 26.9703 12.4939 27.8998 14.2289C28.8602 15.9639 29.3404 17.7299 29.3404 19.5268C29.3404 20.5802 29.1546 21.7111 28.7828 22.9194C28.411 24.1277 27.7139 25.336 26.6915 26.5443C25.7 27.7526 24.4607 28.6821 22.9736 29.3327C21.4865 29.9524 20.0303 30.2622 18.6051 30.2622ZM13.2607 19.7127C13.2607 20.3943 13.4311 21.1689 13.7719 22.0364C14.1437 22.8729 14.7788 23.601 15.6773 24.2207C16.6068 24.8403 17.6137 25.1501 18.6981 25.1501C20.1852 25.1501 21.4555 24.6234 22.5089 23.57C23.5932 22.4856 24.1354 21.1999 24.1354 19.7127C24.1354 18.2256 23.5932 16.9553 22.5089 15.9019C21.4555 14.8175 20.1852 14.2754 18.6981 14.2754C18.0164 14.2754 17.2419 14.4613 16.3744 14.833C15.5379 15.1738 14.8098 15.809 14.1901 16.7384C13.5705 17.6369 13.2607 18.6284 13.2607 19.7127Z" fill="#00A3FF"/>
<path d="M30.8017 34.8166L34.9378 31.9352C36.4869 33.8871 38.3149 34.863 40.4217 34.863C42.0637 34.863 43.5044 34.2744 44.7437 33.0971C45.983 31.9197 46.6026 30.5255 46.6026 28.9145V28.0315C45.952 28.6821 45.131 29.2088 44.1395 29.6116C43.1481 29.9833 42.0637 30.1692 40.8864 30.1692C39.4922 30.1692 38.16 29.9059 36.8897 29.3792C35.6194 28.8215 34.5041 28.047 33.5436 27.0555C32.6142 26.0641 31.8861 24.9178 31.3594 23.6165C30.8327 22.3152 30.5693 20.952 30.5693 19.5268C30.5693 18.8452 30.6623 18.0552 30.8482 17.1567C31.0341 16.2582 31.3749 15.3442 31.8706 14.4148C32.3663 13.4853 33.0324 12.6023 33.8689 11.7658C34.7364 10.8983 35.8208 10.1857 37.1221 9.62803C38.4543 9.07035 39.833 8.79151 41.2582 8.79151C42.6834 8.79151 44.0466 9.07035 45.3478 9.62803C46.6801 10.1857 47.8419 10.9603 48.8333 11.9517C49.8248 12.9121 50.5993 14.0585 51.157 15.3907C51.7147 16.692 51.9935 18.0552 51.9935 19.4804V28.868C51.9935 30.3242 51.6992 31.7029 51.1105 33.0041C50.5529 34.3363 49.7473 35.4827 48.6939 36.4431C47.6715 37.4346 46.4322 38.1936 44.9761 38.7203C43.5509 39.278 42.0327 39.5569 40.4217 39.5569C39.1204 39.5569 37.8347 39.34 36.5644 38.9062C35.3251 38.5035 34.2097 37.9148 33.2183 37.1402C32.2579 36.3657 31.4523 35.5911 30.8017 34.8166ZM35.8208 19.7127C35.8208 20.3943 35.9912 21.1689 36.332 22.0364C36.7038 22.8729 37.3389 23.601 38.2374 24.2207C39.1669 24.8403 40.1738 25.1501 41.2582 25.1501C42.7453 25.1501 44.0156 24.6234 45.069 23.57C46.1534 22.4856 46.6956 21.1999 46.6956 19.7127C46.6956 18.2256 46.1534 16.9553 45.069 15.9019C44.0156 14.8175 42.7453 14.2754 41.2582 14.2754C40.5766 14.2754 39.802 14.4613 38.9345 14.833C38.098 15.1738 37.3699 15.809 36.7503 16.7384C36.1306 17.6369 35.8208 18.6284 35.8208 19.7127Z" fill="#00A3FF"/>
<path d="M54.7579 29.7045V18.2256C54.7579 17.3271 54.8973 16.3821 55.1762 15.3907C55.486 14.3993 56.0746 13.3924 56.9421 12.37C57.8096 11.3475 58.925 10.573 60.2882 10.0463C61.6514 9.51959 63.0611 9.25624 64.5173 9.25624V14.043C63.1851 14.043 62.1007 14.4613 61.2641 15.2978C60.4586 16.1343 60.0559 17.3271 60.0559 18.8762V29.7045H54.7579Z" fill="#00A3FF"/>
<path d="M80.8389 29.7045V27.985C80.0953 28.6666 79.2278 29.2088 78.2364 29.6116C77.2449 29.9833 76.207 30.1692 75.1227 30.1692C73.6975 30.1692 72.3342 29.9059 71.033 29.3792C69.7627 28.8215 68.6474 28.0624 67.6869 27.102C66.7574 26.1106 66.0294 24.9642 65.5027 23.663C65.007 22.3617 64.7591 20.983 64.7591 19.5268C64.7591 18.0707 65.007 16.692 65.5027 15.3907C66.0294 14.0585 66.7574 12.9121 67.6869 11.9517C68.6474 10.9603 69.7627 10.1857 71.033 9.62803C72.3342 9.07035 73.6975 8.79151 75.1227 8.79151C76.176 8.79151 77.1985 8.99289 78.1899 9.39566C79.2123 9.76745 80.0798 10.2941 80.7924 10.9758V9.25624H86.1833V29.7045H80.8389ZM70.0571 19.7127C70.0571 20.3943 70.2274 21.1689 70.5683 22.0364C70.94 22.8729 71.5752 23.601 72.4737 24.2207C73.4031 24.8403 74.41 25.1501 75.4944 25.1501C76.9816 25.1501 78.2519 24.6234 79.3053 23.57C80.3896 22.4856 80.9318 21.1999 80.9318 19.7127C80.9318 18.2256 80.3896 16.9553 79.3053 15.9019C78.2519 14.8175 76.9816 14.2754 75.4944 14.2754C74.8128 14.2754 74.0383 14.4613 73.1708 14.833C72.3342 15.1738 71.6062 15.809 70.9865 16.7384C70.3669 17.6369 70.0571 18.6284 70.0571 19.7127Z" fill="#00A3FF"/>
<path d="M88.2411 29.7045V17.7144C88.2411 16.8469 88.396 15.9329 88.7058 14.9725C89.0157 13.981 89.6043 12.9896 90.4719 11.9982C91.3703 10.9758 92.4857 10.2012 93.8179 9.6745C95.1811 9.1478 96.5598 8.88446 97.954 8.88446C98.9764 8.88446 100.045 9.03937 101.161 9.34919C102.307 9.65901 103.36 10.1857 104.321 10.9293C105.281 11.6729 106.087 12.6333 106.737 13.8106C107.388 14.957 107.713 16.2582 107.713 17.7144V29.7045H102.369V18.5044C102.369 16.9243 101.951 15.6851 101.114 14.7866C100.309 13.8571 99.2553 13.3924 97.954 13.3924C96.6838 13.3924 95.6304 13.8571 94.7939 14.7866C93.9883 15.6851 93.5855 16.9243 93.5855 18.5044V29.7045H88.2411Z" fill="#00A3FF"/>
<path d="M109.576 34.8166L113.713 31.9352C115.262 33.8871 117.09 34.863 119.196 34.863C120.838 34.863 122.279 34.2744 123.518 33.0971C124.758 31.9197 125.377 30.5255 125.377 28.9145V28.0315C124.727 28.6821 123.906 29.2088 122.914 29.6116C121.923 29.9833 120.838 30.1692 119.661 30.1692C118.267 30.1692 116.935 29.9059 115.664 29.3792C114.394 28.8215 113.279 28.047 112.318 27.0555C111.389 26.0641 110.661 24.9178 110.134 23.6165C109.607 22.3152 109.344 20.952 109.344 19.5268C109.344 18.8452 109.437 18.0552 109.623 17.1567C109.809 16.2582 110.15 15.3442 110.645 14.4148C111.141 13.4853 111.807 12.6023 112.644 11.7658C113.511 10.8983 114.596 10.1857 115.897 9.62803C117.229 9.07035 118.608 8.79151 120.033 8.79151C121.458 8.79151 122.821 9.07035 124.123 9.62803C125.455 10.1857 126.617 10.9603 127.608 11.9517C128.6 12.9121 129.374 14.0585 129.932 15.3907C130.489 16.692 130.768 18.0552 130.768 19.4804V28.868C130.768 30.3242 130.474 31.7029 129.885 33.0041C129.328 34.3363 128.522 35.4827 127.469 36.4431C126.446 37.4346 125.207 38.1936 123.751 38.7203C122.326 39.278 120.807 39.5569 119.196 39.5569C117.895 39.5569 116.609 39.34 115.339 38.9062C114.1 38.5035 112.984 37.9148 111.993 37.1402C111.033 36.3657 110.227 35.5911 109.576 34.8166ZM114.596 19.7127C114.596 20.3943 114.766 21.1689 115.107 22.0364C115.479 22.8729 116.114 23.601 117.012 24.2207C117.942 24.8403 118.949 25.1501 120.033 25.1501C121.52 25.1501 122.79 24.6234 123.844 23.57C124.928 22.4856 125.47 21.1999 125.47 19.7127C125.47 18.2256 124.928 16.9553 123.844 15.9019C122.79 14.8175 121.52 14.2754 120.033 14.2754C119.351 14.2754 118.577 14.4613 117.709 14.833C116.873 15.1738 116.145 15.809 115.525 16.7384C114.905 17.6369 114.596 18.6284 114.596 19.7127Z" fill="#00A3FF"/>
<path d="M148.507 23.57L151.667 27.3344C150.644 28.2019 149.436 28.8835 148.042 29.3792C146.679 29.8439 145.269 30.0763 143.813 30.0763C142.264 30.0763 140.777 29.8129 139.351 29.2862C137.926 28.7286 136.687 27.9695 135.634 27.0091C134.58 26.0176 133.744 24.8713 133.124 23.57C132.535 22.2688 132.241 20.8901 132.241 19.4339C132.241 17.9777 132.52 16.599 133.078 15.2978C133.635 13.9965 134.41 12.8657 135.401 11.9052C136.393 10.9138 137.57 10.1547 138.933 9.62803C140.327 9.07035 141.799 8.79151 143.348 8.79151C144.494 8.79151 145.672 8.9774 146.88 9.34919C148.119 9.68999 149.312 10.3561 150.459 11.3475C151.636 12.339 152.503 13.5783 153.061 15.0654C153.65 16.5216 153.944 17.9777 153.944 19.4339V20.9675H137.585C137.957 22.2998 138.732 23.3996 139.909 24.2671C141.086 25.1346 142.388 25.5684 143.813 25.5684C145.641 25.5684 147.205 24.9023 148.507 23.57ZM138.05 16.599H148.321C147.918 15.6386 147.267 14.8485 146.369 14.2289C145.501 13.6092 144.494 13.2994 143.348 13.2994C142.202 13.2994 141.148 13.6092 140.188 14.2289C139.258 14.8176 138.546 15.6076 138.05 16.599Z" fill="#00A3FF"/>
</svg>
